<?xml version="1.0" encoding="UTF-8"?>
<!DOCTYPE svg PUBLIC "-//W3C//DTD SVG 1.1//EN" "http://www.w3.org/Graphics/SVG/1.1/DTD/svg11.dtd">
<svg version="1.1" xmlns="http://www.w3.org/2000/svg" xmlns:xlink="http://www.w3.org/1999/xlink" x="0" y="0" width="64.592" height="33.716" viewBox="0, 0, 258.367, 134.865">
  <defs>
    <linearGradient id="Gradient_1" gradientUnits="userSpaceOnUse" x1="93.78" y1="24.995" x2="58.31" y2="19.934">
      <stop offset="0" stop-color="#BA9220"/>
      <stop offset="0" stop-color="#BA9220"/>
      <stop offset="0.443" stop-color="#FDD87C"/>
      <stop offset="1" stop-color="#BA931F"/>
    </linearGradient>
    <linearGradient id="Gradient_2" gradientUnits="userSpaceOnUse" x1="106.722" y1="28.386" x2="93.948" y2="24.905">
      <stop offset="0" stop-color="#BA9220"/>
      <stop offset="0" stop-color="#BA9220"/>
      <stop offset="0.443" stop-color="#FDD87C"/>
      <stop offset="1" stop-color="#BA931F"/>
    </linearGradient>
    <linearGradient id="Gradient_3" gradientUnits="userSpaceOnUse" x1="127.616" y1="21.519" x2="110.866" y2="15.151">
      <stop offset="0" stop-color="#BA9220"/>
      <stop offset="0" stop-color="#BA9220"/>
      <stop offset="0.443" stop-color="#FDD87C"/>
      <stop offset="1" stop-color="#BA931F"/>
    </linearGradient>
    <linearGradient id="Gradient_4" gradientUnits="userSpaceOnUse" x1="134.673" y1="28.386" x2="120.614" y2="24.905">
      <stop offset="0" stop-color="#BA9220"/>
      <stop offset="0" stop-color="#BA9220"/>
      <stop offset="0.443" stop-color="#FDD87C"/>
      <stop offset="1" stop-color="#BA931F"/>
    </linearGradient>
    <linearGradient id="Gradient_5" gradientUnits="userSpaceOnUse" x1="152.059" y1="28.386" x2="136.614" y2="24.905">
      <stop offset="0" stop-color="#BA9220"/>
      <stop offset="0" stop-color="#BA9220"/>
      <stop offset="0.443" stop-color="#FDD87C"/>
      <stop offset="1" stop-color="#BA931F"/>
    </linearGradient>
    <linearGradient id="Gradient_6" gradientUnits="userSpaceOnUse" x1="185.306" y1="28.386" x2="154.456" y2="24.905">
      <stop offset="0" stop-color="#BA9220"/>
      <stop offset="0" stop-color="#BA9220"/>
      <stop offset="0.443" stop-color="#FDD87C"/>
      <stop offset="1" stop-color="#BA931F"/>
    </linearGradient>
    <linearGradient id="Gradient_7" gradientUnits="userSpaceOnUse" x1="200.232" y1="28.386" x2="187.458" y2="24.905">
      <stop offset="0" stop-color="#BA9220"/>
      <stop offset="0" stop-color="#BA9220"/>
      <stop offset="0.443" stop-color="#FDD87C"/>
      <stop offset="1" stop-color="#BA931F"/>
    </linearGradient>
    <linearGradient id="Gradient_8" gradientUnits="userSpaceOnUse" x1="115.181" y1="66.32" x2="90.472" y2="62.77">
      <stop offset="0" stop-color="#BA9220"/>
      <stop offset="0" stop-color="#BA9220"/>
      <stop offset="0.443" stop-color="#FDD87C"/>
      <stop offset="1" stop-color="#BA931F"/>
    </linearGradient>
    <linearGradient id="Gradient_9" gradientUnits="userSpaceOnUse" x1="155.378" y1="61.99" x2="127.686" y2="56.62">
      <stop offset="0" stop-color="#BA9220"/>
      <stop offset="0" stop-color="#BA9220"/>
      <stop offset="0.443" stop-color="#FDD87C"/>
      <stop offset="1" stop-color="#BA931F"/>
    </linearGradient>
    <linearGradient id="Gradient_10" gradientUnits="userSpaceOnUse" x1="168.002" y1="67.778" x2="157.224" y2="64.841">
      <stop offset="0" stop-color="#BA9220"/>
      <stop offset="0" stop-color="#BA9220"/>
      <stop offset="0.443" stop-color="#FDD87C"/>
      <stop offset="1" stop-color="#BA931F"/>
    </linearGradient>
    <linearGradient id="Gradient_11" gradientUnits="userSpaceOnUse" x1="35.744" y1="106.569" x2="0.274" y2="101.508">
      <stop offset="0" stop-color="#BA9220"/>
      <stop offset="0" stop-color="#A47D00"/>
      <stop offset="0.302" stop-color="#DDB856"/>
      <stop offset="0.609" stop-color="#FDD87C"/>
      <stop offset="1" stop-color="#BA931F"/>
    </linearGradient>
    <linearGradient id="Gradient_12" gradientUnits="userSpaceOnUse" x1="51.378" y1="109.96" x2="35.932" y2="106.479">
      <stop offset="0" stop-color="#BA9220"/>
      <stop offset="0" stop-color="#A47D00"/>
      <stop offset="0.302" stop-color="#DDB856"/>
      <stop offset="0.609" stop-color="#FDD87C"/>
      <stop offset="1" stop-color="#BA931F"/>
    </linearGradient>
    <linearGradient id="Gradient_13" gradientUnits="userSpaceOnUse" x1="71.509" y1="109.864" x2="53.693" y2="106.411">
      <stop offset="0" stop-color="#BA9220"/>
      <stop offset="0" stop-color="#A47D00"/>
      <stop offset="0.302" stop-color="#DDB856"/>
      <stop offset="0.609" stop-color="#FDD87C"/>
      <stop offset="1" stop-color="#BA931F"/>
    </linearGradient>
    <linearGradient id="Gradient_14" gradientUnits="userSpaceOnUse" x1="89.363" y1="103.092" x2="72.612" y2="96.725">
      <stop offset="0" stop-color="#BA9220"/>
      <stop offset="0" stop-color="#A47D00"/>
      <stop offset="0.302" stop-color="#DDB856"/>
      <stop offset="0.609" stop-color="#FDD87C"/>
      <stop offset="1" stop-color="#BA931F"/>
    </linearGradient>
    <linearGradient id="Gradient_15" gradientUnits="userSpaceOnUse" x1="110.972" y1="103.092" x2="82.431" y2="96.725">
      <stop offset="0" stop-color="#BA9220"/>
      <stop offset="0" stop-color="#A47D00"/>
      <stop offset="0.302" stop-color="#DDB856"/>
      <stop offset="0.609" stop-color="#FDD87C"/>
      <stop offset="1" stop-color="#BA931F"/>
    </linearGradient>
    <linearGradient id="Gradient_16" gradientUnits="userSpaceOnUse" x1="132.103" y1="109.96" x2="116.658" y2="106.479">
      <stop offset="0" stop-color="#BA9220"/>
      <stop offset="0" stop-color="#A47D00"/>
      <stop offset="0.302" stop-color="#DDB856"/>
      <stop offset="0.609" stop-color="#FDD87C"/>
      <stop offset="1" stop-color="#BA931F"/>
    </linearGradient>
    <linearGradient id="Gradient_17" gradientUnits="userSpaceOnUse" x1="154.295" y1="112.847" x2="123.264" y2="103.593">
      <stop offset="0" stop-color="#BA9220"/>
      <stop offset="0" stop-color="#A47D00"/>
      <stop offset="0.302" stop-color="#DDB856"/>
      <stop offset="0.609" stop-color="#FDD87C"/>
      <stop offset="1" stop-color="#BA931F"/>
    </linearGradient>
    <linearGradient id="Gradient_18" gradientUnits="userSpaceOnUse" x1="186.664" y1="106.21" x2="160.895" y2="101.255">
      <stop offset="0" stop-color="#BA9220"/>
      <stop offset="0" stop-color="#A47D00"/>
      <stop offset="0.302" stop-color="#DDB856"/>
      <stop offset="0.609" stop-color="#FDD87C"/>
      <stop offset="1" stop-color="#BA931F"/>
    </linearGradient>
    <linearGradient id="Gradient_19" gradientUnits="userSpaceOnUse" x1="206.017" y1="109.96" x2="190.572" y2="106.479">
      <stop offset="0" stop-color="#BA9220"/>
      <stop offset="0" stop-color="#A47D00"/>
      <stop offset="0.302" stop-color="#DDB856"/>
      <stop offset="0.609" stop-color="#FDD87C"/>
      <stop offset="1" stop-color="#BA931F"/>
    </linearGradient>
    <linearGradient id="Gradient_20" gradientUnits="userSpaceOnUse" x1="223.923" y1="109.96" x2="208.478" y2="106.479">
      <stop offset="0" stop-color="#BA9220"/>
      <stop offset="0" stop-color="#A47D00"/>
      <stop offset="0.302" stop-color="#DDB856"/>
      <stop offset="0.609" stop-color="#FDD87C"/>
      <stop offset="1" stop-color="#BA931F"/>
    </linearGradient>
    <linearGradient id="Gradient_21" gradientUnits="userSpaceOnUse" x1="245.239" y1="103.102" x2="227.585" y2="96.737">
      <stop offset="0" stop-color="#BA9220"/>
      <stop offset="0" stop-color="#A47D00"/>
      <stop offset="0.302" stop-color="#DDB856"/>
      <stop offset="0.609" stop-color="#FDD87C"/>
      <stop offset="1" stop-color="#BA931F"/>
    </linearGradient>
    <linearGradient id="Gradient_22" gradientUnits="userSpaceOnUse" x1="258.261" y1="109.96" x2="244.462" y2="106.479">
      <stop offset="0" stop-color="#BA9220"/>
      <stop offset="0" stop-color="#A47D00"/>
      <stop offset="0.302" stop-color="#DDB856"/>
      <stop offset="0.609" stop-color="#FDD87C"/>
      <stop offset="1" stop-color="#BA931F"/>
    </linearGradient>
  </defs>
  <g id="Layer_1" transform="translate(-0, 0)">
    <g>
      <g>
        <path d="M65.95,36.955 Q66.296,34.508 66.296,29.634 Q66.296,19.926 65.43,15.439 Q64.563,10.952 62.666,10.952 Q61.442,10.952 60.3,12.237 Q59.158,13.522 58.873,15.214 Q58.036,15.031 58.036,14.48 Q58.036,12.4 60.045,10.146 Q62.054,7.893 63.91,7.893 Q65.786,7.893 66.755,9.331 Q67.724,10.768 68.438,14.623 Q69.519,20.354 69.519,27.839 L69.539,29.266 L72.476,23.556 L73.781,21.047 L75.678,17.315 Q77.309,14.134 77.86,12.216 L80.98,9.239 Q80.838,10.789 80.838,11.89 Q80.838,15.357 82.245,22.964 L82.49,24.29 L82.898,26.411 Q83.305,28.593 83.713,31.122 Q84.305,30.021 84.448,29.695 L86.1,26.268 L88.098,22.21 Q90.586,17.05 90.586,14.154 Q90.586,12.196 88.975,11.176 L91.973,7.893 Q94.054,9.259 94.054,11.176 Q94.054,13.726 89.771,22.149 Q89.057,23.556 88.057,25.575 L87.18,27.37 L86.283,29.43 L85.1,32.081 Q84.957,32.428 84.448,33.713 L81.307,37.037 L81.225,36.139 Q80.817,31.857 79.696,26.003 L79.451,24.78 L79.104,22.964 Q78.717,20.986 78.594,20.068 L78.207,17.274 Q78.166,16.968 78.003,15.847 L75.25,21.313 L74.128,23.536 Q71.048,29.572 69.417,33.59 z" fill="url(#Gradient_1)"/>
        <path d="M106.311,29.654 Q106.821,30.001 106.821,30.47 Q106.821,31.102 105.515,32.632 Q102.028,36.67 98.622,36.67 Q96.542,36.67 95.196,35.018 Q93.85,33.366 93.85,30.796 Q93.85,26.146 97.368,21.384 Q100.886,16.622 104.332,16.622 Q106.821,16.622 106.821,19.293 Q106.821,22.291 103.914,25.147 Q101.008,28.002 96.827,29.124 Q97.235,34.039 100.702,34.039 Q104.129,34.039 106.311,29.654 z M96.909,26.636 Q97.5,26.839 97.99,26.839 Q100.519,26.839 102.415,25.289 Q104.312,23.739 104.312,21.659 Q104.312,19.273 101.885,19.273 Q100.131,19.273 98.714,21.363 Q97.296,23.454 96.909,26.636 z" fill="url(#Gradient_2)"/>
        <path d="M117.711,30.143 Q118.303,30.429 118.303,30.878 Q118.303,32.346 116.11,34.508 Q113.918,36.67 112.429,36.67 Q110.736,36.67 110.736,34.222 Q110.736,32.734 110.92,31.184 L111.144,29.368 L112.715,15.174 Q113.449,8.688 117.171,4.344 Q120.893,-0 125.747,-0 Q126.93,-0 127.746,0.204 L124.85,3.161 Q123.891,2.835 122.606,2.835 Q119.547,2.835 118.028,4.987 Q116.508,7.138 115.937,12.278 L114.04,29.368 Q113.816,31.347 113.816,32.203 Q113.816,34.039 114.448,34.039 Q115.203,34.039 116.223,32.825 Q117.242,31.612 117.711,30.143 z" fill="url(#Gradient_3)"/>
        <path d="M134.782,17.152 L132.457,19.946 Q130.825,19.273 129.336,19.273 Q126.665,19.273 125.125,21.537 Q123.585,23.801 123.585,27.737 Q123.585,30.511 124.697,32.203 Q125.808,33.896 127.603,33.896 Q130.642,33.896 132.375,29.919 Q132.824,30.409 132.824,30.837 Q132.824,32.53 130.183,34.6 Q127.542,36.67 125.339,36.67 Q123.218,36.67 121.862,34.967 Q120.506,33.264 120.506,30.551 Q120.506,25.269 124.095,20.945 Q127.684,16.622 132.069,16.622 Q133.66,16.622 134.782,17.152 z" fill="url(#Gradient_4)"/>
        <path d="M141.084,36.67 Q136.495,36.67 136.495,30.592 Q136.495,25.697 140.084,21.16 Q143.674,16.622 147.529,16.622 Q152.179,16.622 152.179,22.699 Q152.179,27.614 148.589,32.142 Q145,36.67 141.084,36.67 z M143.552,34.386 Q145.897,34.386 147.478,31.775 Q149.058,29.164 149.058,25.269 Q149.058,18.906 145.102,18.906 Q142.777,18.906 141.196,21.527 Q139.615,24.147 139.615,28.022 Q139.615,34.386 143.552,34.386 z" fill="url(#Gradient_5)"/>
        <path d="M170.391,35.426 L167.373,36.67 L167.434,36.099 L167.597,34.589 L167.74,33.162 L168.759,24.005 L168.902,22.964 Q168.984,22.149 168.984,21.374 Q168.984,19.395 167.781,19.395 Q165.904,19.395 163.406,23.23 Q160.908,27.064 160.52,30.531 L159.99,35.426 L156.951,36.67 L157.012,36.099 L157.175,34.589 L157.338,33.162 L158.379,23.699 L158.501,22.618 Q158.644,21.353 158.644,20.578 Q158.644,19.273 157.991,19.273 Q156.461,19.273 154.687,22.74 Q154.218,22.353 154.218,22.067 Q154.218,20.843 156.451,18.733 Q158.684,16.622 159.99,16.622 Q161.744,16.622 161.744,18.865 Q161.744,19.436 161.642,20.395 L161.479,22.047 L161.315,23.434 L161.152,24.882 L161.723,23.984 Q166.292,16.622 170.228,16.622 Q172.125,16.622 172.125,19.355 Q172.125,19.824 171.961,21.333 L171.758,23.209 L171.472,25.759 Q173.369,21.822 175.969,19.222 Q178.569,16.622 180.609,16.622 Q182.628,16.622 182.628,19.232 Q182.628,20.354 182.404,21.904 L181.323,29.47 Q180.976,31.816 180.976,33.101 Q180.976,34.182 181.567,34.182 Q182.261,34.182 183.311,33.019 Q184.361,31.857 184.994,30.388 Q185.544,30.755 185.544,31.061 Q185.544,32.346 183.27,34.508 Q180.996,36.67 179.65,36.67 Q177.917,36.67 177.917,34.345 Q177.917,32.876 178.365,29.797 L179.079,24.882 Q179.12,24.616 179.222,23.719 Q179.263,23.352 179.365,22.475 Q179.467,21.598 179.467,21.129 Q179.467,19.395 178.325,19.395 Q176.408,19.395 173.868,23.23 Q171.329,27.064 170.942,30.531 z" fill="url(#Gradient_6)"/>
        <path d="M199.821,29.654 Q200.331,30.001 200.331,30.47 Q200.331,31.102 199.025,32.632 Q195.538,36.67 192.132,36.67 Q190.052,36.67 188.706,35.018 Q187.359,33.366 187.359,30.796 Q187.359,26.146 190.878,21.384 Q194.396,16.622 197.842,16.622 Q200.331,16.622 200.331,19.293 Q200.331,22.291 197.424,25.147 Q194.518,28.002 190.337,29.124 Q190.745,34.039 194.212,34.039 Q197.638,34.039 199.821,29.654 z M190.419,26.636 Q191.01,26.839 191.5,26.839 Q194.029,26.839 195.925,25.289 Q197.822,23.739 197.822,21.659 Q197.822,19.273 195.395,19.273 Q193.641,19.273 192.224,21.363 Q190.806,23.454 190.419,26.636 z" fill="url(#Gradient_7)"/>
      </g>
      <g>
        <path d="M106.441,60.295 L96.373,60.295 L95.513,67.901 Q95.289,69.949 95.289,70.93 Q95.289,72.874 96.614,72.874 Q98.043,72.874 99.574,70.534 Q99.832,70.861 99.832,71.119 Q99.832,72.083 98.137,73.425 Q96.442,74.767 95.22,74.767 Q92.777,74.767 92.777,71.635 Q92.777,70.482 93.069,67.901 L93.913,60.295 L90.282,60.295 L92.295,58.299 L94.136,58.299 L94.498,55.167 L97.027,54.323 L96.597,58.299 L109.315,58.299 Q110.502,57.851 111.414,57.851 Q115.372,57.851 115.372,62.979 Q115.372,67.11 112.343,70.938 Q109.315,74.767 106.062,74.767 Q102.138,74.767 102.138,69.639 Q102.138,64.563 106.441,60.295 z M108.093,72.84 Q110.072,72.84 111.405,70.637 Q112.739,68.435 112.739,65.148 Q112.739,59.779 109.383,59.779 Q107.422,59.779 106.096,61.99 Q104.771,64.201 104.771,67.471 Q104.771,72.84 108.093,72.84 z" fill="url(#Gradient_8)"/>
        <path d="M140.999,60.295 L133.564,60.295 L132.704,67.901 Q132.48,69.949 132.48,70.93 Q132.48,72.874 133.805,72.874 Q135.234,72.874 136.765,70.534 Q137.023,70.861 137.023,71.119 Q137.023,72.083 135.328,73.425 Q133.633,74.767 132.411,74.767 Q129.968,74.767 129.968,71.635 Q129.968,70.482 130.26,67.901 L131.104,60.295 L127.473,60.295 L129.486,58.299 L131.327,58.299 L131.689,55.167 L134.218,54.323 L133.788,58.299 L141.222,58.299 Q141.825,52.344 144.182,49.023 Q147.882,43.843 152.856,43.843 Q153.699,43.843 154.508,44.032 L151.978,46.511 Q150.997,46.218 150.137,46.218 Q145.008,46.218 144.113,54.203 L142.943,64.821 Q144.957,61.792 147.375,59.822 Q149.792,57.851 151.496,57.851 Q153.183,57.851 153.183,60.192 Q153.183,60.863 152.976,62.291 L152.047,68.71 Q151.771,70.62 151.771,71.773 Q151.771,72.651 152.27,72.651 Q153.475,72.651 155.179,69.484 Q155.592,69.742 155.592,70.018 Q155.592,71.154 153.673,72.961 Q151.754,74.767 150.55,74.767 Q149.207,74.767 149.207,72.84 Q149.207,71.429 149.569,68.934 L150.171,64.769 Q150.464,62.721 150.464,61.534 Q150.464,60.192 149.517,60.192 Q147.314,60.192 145.051,63.186 Q142.788,66.18 142.41,69.588 L141.945,73.718 L139.381,74.767 L139.433,74.286 L139.57,73.012 L139.708,71.808 z" fill="url(#Gradient_9)"/>
        <path d="M167.655,68.848 Q168.085,69.14 168.085,69.536 Q168.085,70.069 166.984,71.36 Q164.041,74.767 161.167,74.767 Q159.412,74.767 158.276,73.374 Q157.141,71.98 157.141,69.811 Q157.141,65.888 160.109,61.869 Q163.078,57.851 165.986,57.851 Q168.085,57.851 168.085,60.106 Q168.085,62.635 165.633,65.044 Q163.181,67.454 159.653,68.4 Q159.997,72.548 162.923,72.548 Q165.814,72.548 167.655,68.848 z M159.722,66.301 Q160.221,66.473 160.634,66.473 Q162.768,66.473 164.368,65.165 Q165.969,63.857 165.969,62.102 Q165.969,60.088 163.921,60.088 Q162.441,60.088 161.245,61.852 Q160.049,63.616 159.722,66.301 z" fill="url(#Gradient_10)"/>
      </g>
      <g>
        <path d="M7.913,118.529 Q8.26,116.082 8.26,111.207 Q8.26,101.499 7.393,97.013 Q6.526,92.526 4.63,92.526 Q3.406,92.526 2.264,93.811 Q1.122,95.096 0.836,96.788 Q0,96.605 0,96.054 Q0,93.974 2.009,91.72 Q4.018,89.467 5.874,89.467 Q7.75,89.467 8.719,90.904 Q9.688,92.342 10.401,96.197 Q11.482,101.928 11.482,109.413 L11.503,110.84 L14.439,105.13 L15.745,102.621 L17.641,98.889 Q19.273,95.707 19.824,93.79 L22.944,90.813 Q22.801,92.363 22.801,93.464 Q22.801,96.931 24.209,104.538 L24.453,105.864 L24.861,107.985 Q25.269,110.167 25.677,112.696 Q26.268,111.595 26.411,111.269 L28.063,107.842 L30.062,103.784 Q32.55,98.624 32.55,95.728 Q32.55,93.77 30.939,92.75 L33.937,89.467 Q36.017,90.833 36.017,92.75 Q36.017,95.299 31.734,103.722 Q31.02,105.13 30.021,107.149 L29.144,108.944 L28.247,111.003 L27.064,113.655 Q26.921,114.001 26.411,115.286 L23.27,118.611 L23.189,117.713 Q22.781,113.43 21.659,107.577 L21.414,106.353 L21.068,104.538 Q20.68,102.56 20.558,101.642 L20.17,98.848 Q20.13,98.542 19.966,97.421 L17.213,102.886 L16.091,105.109 Q13.012,111.146 11.38,115.164 z" fill="url(#Gradient_11)"/>
        <path d="M40.402,118.244 Q35.813,118.244 35.813,112.166 Q35.813,107.271 39.403,102.733 Q42.992,98.196 46.847,98.196 Q51.497,98.196 51.497,104.273 Q51.497,109.188 47.907,113.716 Q44.318,118.244 40.402,118.244 z M42.87,115.959 Q45.215,115.959 46.796,113.349 Q48.376,110.738 48.376,106.843 Q48.376,100.48 44.42,100.48 Q42.095,100.48 40.514,103.1 Q38.934,105.721 38.934,109.596 Q38.934,115.959 42.87,115.959 z" fill="url(#Gradient_12)"/>
        <path d="M60.45,106.782 Q64.978,98.195 69.363,98.195 Q70.505,98.195 71.647,98.726 L68.771,101.867 Q68.118,101.499 67.099,101.499 Q64.978,101.499 62.622,104.936 Q60.266,108.372 59.859,112.084 L59.308,117.061 L56.29,118.08 L56.351,117.469 L56.493,116.143 L56.657,114.817 L57.717,105.109 L57.84,104.049 Q57.982,102.845 57.982,102.091 Q57.982,100.847 57.289,100.847 Q55.657,100.847 54.046,104.334 Q53.536,103.947 53.557,103.539 Q53.618,102.295 55.831,100.245 Q58.043,98.195 59.328,98.195 Q61.062,98.195 61.062,100.48 Q61.062,101.03 60.96,101.969 L60.817,103.396 L60.634,105.109 z" fill="url(#Gradient_13)"/>
        <path d="M79.458,111.717 Q80.049,112.003 80.049,112.451 Q80.049,113.92 77.857,116.082 Q75.665,118.244 74.176,118.244 Q72.483,118.244 72.483,115.796 Q72.483,114.307 72.666,112.757 L72.891,110.942 L74.461,96.747 Q75.195,90.262 78.917,85.918 Q82.64,81.574 87.493,81.574 Q88.676,81.574 89.492,81.778 L86.596,84.735 Q85.638,84.409 84.353,84.409 Q81.293,84.409 79.774,86.56 Q78.255,88.712 77.684,93.851 L75.787,110.942 Q75.563,112.921 75.563,113.777 Q75.563,115.613 76.195,115.613 Q76.949,115.613 77.969,114.399 Q78.989,113.186 79.458,111.717 z" fill="url(#Gradient_14)"/>
        <path d="M95.957,98.501 L96.161,96.747 Q96.895,90.221 100.618,85.897 Q104.34,81.574 109.193,81.574 Q110.356,81.574 111.192,81.778 L108.296,84.735 Q107.338,84.409 106.032,84.409 Q102.973,84.409 101.464,86.55 Q99.955,88.692 99.384,93.851 L97.487,110.84 L97.344,112.146 Q97.161,113.879 97.161,114.613 Q97.161,115.613 97.691,115.613 Q99.384,115.613 101.097,111.778 Q101.647,112.105 101.647,112.431 Q101.647,113.165 99.995,115.307 Q97.691,118.244 95.672,118.244 Q94.101,118.244 94.101,116.082 Q94.101,115.286 94.346,112.921 L94.55,111.126 L94.713,109.617 Q93.326,112.676 90.216,115.46 Q87.106,118.244 85.087,118.244 Q82.211,118.244 82.211,113.736 Q82.211,107.842 86.188,103.151 Q90.165,98.461 95.162,98.461 Q95.407,98.461 95.957,98.501 z M95.631,101.418 Q93.918,100.48 92.49,100.48 Q89.472,100.48 87.514,103.906 Q85.556,107.332 85.556,112.615 Q85.556,115.266 87.106,115.266 Q88.982,115.266 91.511,112.492 Q94.795,108.923 95.386,103.722 z" fill="url(#Gradient_15)"/>
        <path d="M121.128,118.244 Q116.539,118.244 116.539,112.166 Q116.539,107.271 120.128,102.733 Q123.718,98.196 127.572,98.196 Q132.222,98.196 132.222,104.273 Q132.222,109.188 128.633,113.716 Q125.043,118.244 121.128,118.244 z M123.595,115.959 Q125.941,115.959 127.521,113.349 Q129.102,110.738 129.102,106.843 Q129.102,100.48 125.145,100.48 Q122.82,100.48 121.24,103.1 Q119.659,105.721 119.659,109.596 Q119.659,115.959 123.595,115.959 z" fill="url(#Gradient_16)"/>
        <path d="M140.972,101.092 L139.32,117.591 Q138.769,123.199 137.617,126.136 Q136.464,129.073 133.895,131.419 Q130.122,134.865 125.431,134.865 Q124.493,134.865 123.024,134.355 L125.737,131.867 Q127.47,132.438 128.878,132.438 Q134.894,132.438 135.832,123.322 L136.362,118.264 L138.076,101.092 L134.384,101.092 L136.709,98.726 L138.32,98.726 L138.443,97.543 Q139.177,89.997 142.787,85.785 Q146.397,81.574 152.107,81.574 Q153.188,81.574 154.534,81.778 L151.679,84.592 Q150.149,84.001 148.681,84.001 Q145.173,84.001 143.684,86.428 Q142.195,88.855 141.522,95.728 L141.216,98.726 L149.476,98.726 L147.049,101.092 z" fill="url(#Gradient_17)"/>
        <path d="M162.267,117.224 L164.857,114.471 L165.489,114.613 Q166.713,114.919 167.814,115.062 Q169.466,114.042 170.048,112.604 Q170.629,111.167 171.098,107.006 L172.811,91.649 Q168.569,91.955 166.04,93.933 Q163.511,95.911 163.511,98.909 Q163.511,100.704 164.408,102.295 L161.125,105.191 Q160.697,103.62 160.697,102.009 Q160.697,96.503 165.397,92.985 Q170.098,89.467 177.42,89.467 Q186.863,89.467 186.863,94.892 Q186.863,99.521 180.765,102.295 Q186.72,104.62 186.72,109.433 Q186.72,113.349 182.743,115.674 Q178.766,117.999 172.097,117.999 Q167.998,117.999 162.267,117.224 z M176.115,91.486 L174.912,102.295 Q176.115,102.397 176.992,102.397 Q177.971,102.397 179.337,102.254 Q183.681,99.745 183.681,96.217 Q183.681,91.486 176.115,91.486 z M174.728,103.926 L174.422,106.659 L174.239,108.372 Q173.892,111.411 173.025,112.645 Q172.158,113.879 169.344,115.307 Q173.382,115.959 177.318,115.959 Q183.681,115.959 183.681,110.901 Q183.681,108.719 181.938,106.69 Q180.194,104.661 177.685,103.926 L177.155,103.947 L176.176,103.988 L175.279,103.947 z" fill="url(#Gradient_18)"/>
        <path d="M195.041,118.244 Q190.452,118.244 190.452,112.166 Q190.452,107.271 194.042,102.733 Q197.631,98.196 201.486,98.196 Q206.136,98.196 206.136,104.273 Q206.136,109.188 202.547,113.716 Q198.957,118.244 195.041,118.244 z M197.509,115.959 Q199.854,115.959 201.435,113.349 Q203.016,110.738 203.016,106.843 Q203.016,100.48 199.059,100.48 Q196.734,100.48 195.153,103.1 Q193.573,105.721 193.573,109.596 Q193.573,115.959 197.509,115.959 z" fill="url(#Gradient_19)"/>
        <path d="M212.948,118.244 Q208.359,118.244 208.359,112.166 Q208.359,107.271 211.949,102.733 Q215.538,98.196 219.393,98.196 Q224.043,98.196 224.043,104.273 Q224.043,109.188 220.453,113.716 Q216.864,118.244 212.948,118.244 z M215.416,115.959 Q217.761,115.959 219.342,113.349 Q220.922,110.738 220.922,106.843 Q220.922,100.48 216.966,100.48 Q214.641,100.48 213.06,103.1 Q211.479,105.721 211.479,109.596 Q211.479,115.959 215.416,115.959 z" fill="url(#Gradient_20)"/>
        <path d="M231.833,104.885 Q233.363,102.03 235.678,100.113 Q237.993,98.195 239.93,98.195 Q242.541,98.195 242.541,100.888 Q242.541,103.457 240.369,105.589 Q238.197,107.72 234.627,108.658 Q238.502,115.613 240.399,115.613 Q241.766,115.613 243.275,113.226 Q243.744,113.573 243.744,113.899 Q243.744,114.858 241.868,116.53 Q239.991,118.203 238.849,118.244 Q236.81,118.345 231.915,109.576 L231.405,108.658 L230.487,116.999 L227.449,118.244 L227.51,117.672 L227.673,116.163 L227.836,114.736 L229.835,96.87 Q230.528,90.527 234.505,86.061 Q238.482,81.594 243.418,81.594 Q244.437,81.594 245.376,81.819 L242.377,84.755 Q241.215,84.409 240.175,84.409 Q234.118,84.409 233.057,93.872 z M231.466,108.046 Q234.75,108.046 236.952,106.568 Q239.155,105.089 239.155,102.907 Q239.155,100.704 237.605,100.704 Q236.177,100.704 234.434,102.795 Q232.69,104.885 231.466,108.046 z" fill="url(#Gradient_21)"/>
        <path d="M244.356,117.142 L247.17,114.838 Q248.761,116.53 251.168,116.53 Q254.104,116.53 254.104,113.696 Q254.104,112.125 251.412,109.311 L250.25,108.107 Q247.701,105.436 247.701,103.784 Q247.701,101.418 249.75,99.807 Q251.8,98.196 254.798,98.196 Q256.429,98.196 258.367,98.807 L255.92,101.071 Q254.37,99.909 252.473,99.909 Q250.25,99.909 250.25,101.765 Q250.25,103.09 252.718,105.66 L253.982,107.006 Q256.797,109.943 256.797,111.738 Q256.797,114.307 254.329,116.275 Q251.861,118.244 248.639,118.244 Q246.354,118.244 244.356,117.142 z" fill="url(#Gradient_22)"/>
      </g>
    </g>
  </g>
</svg>
